<svg id="Capa_1" enable-background="new 0 0 508.996 508.996" height="512" viewBox="0 0 508.996 508.996" width="512" xmlns="http://www.w3.org/2000/svg"><g><path d="m499.669 121.769-81.298-81.298c-6.278-6.278-15.274-8.067-23.479-4.669-8.202 3.398-13.298 11.024-13.298 19.903v20.423c0 .327-.152.546-.281.673-.172.169-.37.284-.605.25-.81-.011-1.62-.016-2.432-.016-26.919 0-52.774 5.885-76.848 17.491-3.731 1.799-5.298 6.282-3.499 10.013 1.8 3.732 6.284 5.298 10.013 3.499 22.688-10.938 47.1-16.359 72.561-15.987 4.312.049 8.301-1.567 11.347-4.573 3.06-3.02 4.745-7.05 4.745-11.35v-20.423c0-4.057 3.092-5.653 4.039-6.045.948-.393 4.263-1.45 7.131 1.418l81.298 81.298c3.181 3.181 4.933 7.41 4.933 11.908s-1.752 8.728-4.934 11.909l-81.296 81.297c-2.87 2.869-6.185 1.811-7.132 1.419-.947-.393-4.039-1.989-4.039-6.045v-22.392c0-5.265-2.575-10.169-6.889-13.118-19.96-13.656-43.337-20.874-67.603-20.874-44.844 0-84.782 25.104-105.29 62.626 4.389-46.677 28.951-89.671 67.574-117.145 3.375-2.401 4.165-7.083 1.764-10.458-2.4-3.375-7.08-4.167-10.459-1.764-46.704 33.221-74.587 87.228-74.587 144.467 0 9.5.757 19.002 2.249 28.243.588 3.638 3.729 6.304 7.402 6.304h.103c3.718-.05 6.838-2.817 7.333-6.502 6.942-51.748 51.614-90.771 103.911-90.771 21.23 0 41.678 6.312 59.135 18.254.22.15.356.433.356.737v22.392c0 8.879 5.096 16.505 13.298 19.903 8.204 3.397 17.2 1.607 23.479-4.67l81.296-81.298c6.015-6.014 9.327-14.01 9.327-22.516s-3.311-16.499-9.325-22.513zm-163.682 198.056c-6.811-6.81-16.201-10.076-25.771-8.956-9.565 1.12-17.951 6.463-23.006 14.662l-14.598 23.677c-4.215 6.838-12.621 9.596-19.989 6.558-28.694-11.836-54.509-28.677-76.727-50.053-24.527-23.596-43.613-51.644-56.728-83.362-3.064-7.413-.321-15.856 6.524-20.077l23.666-14.592c8.199-5.055 13.543-13.44 14.662-23.007 1.12-9.567-2.145-18.96-8.955-25.771l-57.92-57.92c-10.304-10.303-26.16-12.158-38.562-4.511-5.115 3.154-9.922 6.653-14.435 10.428-.152.115-.299.238-.443.366-34.585 29.213-50.8 75.569-40.775 120.573 12.86 57.732 47.404 116.988 97.269 166.852 29.92 29.919 62.868 54.136 97.932 71.979 3.692 1.877 8.208.41 10.086-3.283 1.878-3.691.408-8.207-3.283-10.086-33.182-16.885-65.73-40.819-94.127-69.216-47.876-47.875-80.987-104.522-93.236-159.508-8.304-37.278 3.915-75.612 30.838-101.371l79.857 79.858-10.446 6.441c-13.143 8.104-18.405 24.327-12.513 38.577 13.91 33.644 34.16 63.4 60.188 88.44 23.578 22.685 50.968 40.553 81.407 53.11 14.197 5.856 30.381.578 38.477-12.552l6.447-10.456 79.851 79.851c-25.759 26.925-64.096 39.144-101.373 30.839-13.438-2.994-27.243-7.336-41.031-12.907-3.843-1.55-8.213.304-9.764 4.145-1.552 3.841.304 8.212 4.145 9.764 14.551 5.878 29.148 10.468 43.389 13.64 8.863 1.975 17.776 2.932 26.604 2.932 42.066.193 82.665-22.414 104.764-58.589 7.646-12.401 5.792-28.258-4.51-38.561zm-275.999-226.253c2.095-1.509 4.247-2.96 6.47-4.33 6.458-3.984 14.718-3.016 20.081 2.349l57.92 57.92c3.548 3.547 5.247 8.439 4.664 13.421-.582 4.982-3.365 9.349-7.636 11.981l-.098.06zm325.672 314.825c-.007.011-.013.022-.02.033-1.37 2.222-2.82 4.372-4.328 6.467l-81.395-81.395.06-.098c2.633-4.27 7-7.053 11.981-7.636 4.981-.582 9.875 1.117 13.422 4.664l57.912 57.912c5.358 5.357 6.329 13.598 2.368 20.053z"/></g></svg>